<?xml version="1.0" encoding="utf-8"?>
<!-- Generator: Adobe Illustrator 22.0.1, SVG Export Plug-In . SVG Version: 6.00 Build 0)  -->
<svg version="1.1" id="Layer_1" xmlns="http://www.w3.org/2000/svg" xmlns:xlink="http://www.w3.org/1999/xlink" x="0px" y="0px"
	 viewBox="0 0 68 28" style="enable-background:new 0 0 68 28;" xml:space="preserve">
<style type="text/css">
	.st0{fill:#F61539;}
</style>
<polygon class="st0" points="39.4,0 49.2,0 49.2,28 46.3,28 46.3,3 39.4,3 "/>
<polygon class="st0" points="39.4,5.4 43.9,5.4 43.9,28 41.2,28 41.1,27.8 41.1,8.3 39.4,8.3 "/>
<path class="st0" d="M66.1,10.4c3.1,4.9,2.1,11.3-2.3,15c-2,1.7-4.6,2.6-7.2,2.6h-5.8v-3h0.2l5.7,0c2.2,0,4.3-0.9,5.9-2.5
	c0.7-0.7,1.3-1.6,1.7-2.5c0.5-1.1,0.7-2.2,0.7-3.4c0-1.2-0.2-2.3-0.7-3.4c-0.7-1.6-1.9-3-3.4-3.9l-0.1-0.1L63.5,3H50.9V0H68
	l-3.6,8.2C65,8.9,65.6,9.6,66.1,10.4L66.1,10.4z"/>
<path class="st0" d="M58,22.7c-0.4,0.1-0.9,0.1-1.3,0.1h-5.8v-3h5.8c1.8,0,3.3-1.5,3.3-3.3c0-1-0.4-1.9-1.1-2.5
	c-0.6-0.5-1.3-0.8-2.1-0.8h-3.2l2.3-5.2h-4.8V5.1h9.3l-2.3,5.3c0.8,0.2,1.5,0.5,2.2,0.9c0.8,0.5,1.5,1.3,1.9,2.1
	c1.2,2.1,1.1,4.8-0.3,6.8C60.8,21.5,59.5,22.4,58,22.7L58,22.7z"/>
<polygon class="st0" points="18,15.2 18,8.1 21.2,8.1 21.2,15.2 18,15.2 "/>
<path class="st0" d="M23.2,19.4c-0.8,0.4-1.7,0.5-2.7,0.5h-7.7V8.1H16v8.8h2.8c0.5,0,1.8,0,2.3-0.1c0.4-0.1,0.8-0.2,1.1-0.4
	c0.3-0.2,0.5-0.5,0.7-0.9c0.2-0.4,0.3-1.4,0.3-2V8.1h3v5.3c0,2.1-0.5,4-1.5,4.9C24.3,18.8,23.8,19.2,23.2,19.4z"/>
<path class="st0" d="M35.3,19.9h-3v-8.7h-4.6V8.1h5c1.4,0,2.7,1.3,2.7,2.8V19.9L35.3,19.9z"/>
<polygon class="st0" points="1.8,8.1 11.1,8.1 11.1,19.9 8.2,19.9 8.2,11.2 4.8,11.2 4.8,19.9 0,19.9 0,16.9 1.8,16.9 "/>
</svg>
